<?xml version="1.0" ?>
<!DOCTYPE svg  PUBLIC '-//W3C//DTD SVG 1.1//EN'  'http://www.w3.org/Graphics/SVG/1.1/DTD/svg11.dtd'>
<!-- Uploaded to: SVG Repo, www.svgrepo.com, Generator: SVG Repo Mixer Tools -->
<svg fill="#000000" width="800px" height="800px" viewBox="0 0 512 512" version="1.1" xml:space="preserve" xmlns="http://www.w3.org/2000/svg" xmlns:xlink="http://www.w3.org/1999/xlink">
<g id="_x39_87_x2C__sun_x2C__day_x2C__light">
<g id="XMLID_669_">
<path d="M178.401,345.111c-0.38-0.329-0.766-0.651-1.141-0.983c-2.406-2.131-4.722-4.359-6.943-6.681    c-0.347-0.362-0.683-0.734-1.024-1.101c-0.762-0.817-1.516-1.643-2.255-2.481c-0.175-0.199-0.359-0.387-0.533-0.588l-26.345,42.38    l41.411-27.881c-0.206-0.166-0.401-0.344-0.606-0.51C180.099,346.561,179.246,345.84,178.401,345.111z" id="XMLID_670_"/>
<path d="M242.354,141.078c0.288-0.03,0.576-0.054,0.865-0.082c0.839-0.081,1.679-0.152,2.52-0.216    c0.432-0.032,0.863-0.066,1.296-0.095c0.952-0.061,1.906-0.109,2.859-0.147c0.553-0.021,1.104-0.036,1.656-0.05    c0.568-0.015,1.136-0.023,1.704-0.029c0.41-0.005,0.822-0.021,1.232-0.021c0.207,0,0.413,0.012,0.62,0.013    c1.197,0.007,2.394,0.033,3.59,0.075c0.323,0.012,0.646,0.019,0.971,0.033c1.382,0.061,2.762,0.151,4.14,0.26    c0.225,0.019,0.45,0.032,0.675,0.052c1.449,0.123,2.894,0.277,4.334,0.454c0.164,0.021,0.329,0.038,0.492,0.059    c1.468,0.187,2.929,0.404,4.385,0.646c0.097,0.017,0.194,0.027,0.29,0.043l-16.173-82.838l-19.202,82.294    c0.133-0.019,0.267-0.03,0.399-0.048C240.122,141.331,241.237,141.194,242.354,141.078z" id="XMLID_671_"/>
<path d="M269.89,372.395c-0.394,0.052-0.787,0.102-1.181,0.15c-1.028,0.126-2.057,0.238-3.088,0.337    c-0.277,0.027-0.556,0.058-0.834,0.082c-1.344,0.119-2.69,0.217-4.037,0.29c-0.085,0.004-0.17,0.006-0.255,0.011    c-1.255,0.064-2.511,0.105-3.766,0.13c-0.269,0.006-0.537,0.009-0.805,0.012c-0.479,0.006-0.958,0.021-1.438,0.021    c-2.165,0-4.335-0.068-6.504-0.19c-0.217-0.012-0.434-0.026-0.65-0.039c-1.277-0.079-2.554-0.174-3.829-0.295    c-0.055-0.005-0.109-0.008-0.164-0.014c-1.28-0.123-2.557-0.273-3.832-0.438c-0.15-0.021-0.3-0.032-0.45-0.052l18.753,80.367    l15.798-80.918c-0.224,0.037-0.447,0.063-0.67,0.098C271.924,372.108,270.908,372.259,269.89,372.395z" id="XMLID_672_"/>
<path d="M164.995,182.373c0.689-0.827,1.396-1.641,2.108-2.448c0.279-0.316,0.552-0.639,0.834-0.953    c1.001-1.109,2.021-2.201,3.063-3.271c0.187-0.192,0.381-0.375,0.568-0.565c0.863-0.875,1.738-1.74,2.63-2.588    c0.37-0.352,0.748-0.694,1.123-1.041c0.732-0.679,1.471-1.352,2.22-2.011c0.187-0.164,0.363-0.336,0.551-0.499l-37.932-25.539    l24.46,39.35C164.743,182.659,164.873,182.52,164.995,182.373z" id="XMLID_673_"/>
<path d="M334.212,172.041c0.353,0.332,0.712,0.659,1.062,0.995c1.06,1.021,2.103,2.057,3.122,3.114    c0.021,0.023,0.045,0.045,0.066,0.067c1.04,1.082,2.055,2.188,3.053,3.309c0.314,0.354,0.619,0.717,0.931,1.075    c0.682,0.784,1.356,1.574,2.017,2.377c0.14,0.169,0.286,0.329,0.424,0.499l25.856-38.401l-39.296,24.427    c0.17,0.149,0.331,0.308,0.499,0.458C332.711,170.643,333.464,171.339,334.212,172.041z" id="XMLID_674_"/>
<path d="M139.156,273.415c-0.027-0.194-0.046-0.391-0.072-0.585c-0.133-0.975-0.254-1.951-0.363-2.931    c-0.031-0.283-0.066-0.565-0.096-0.849c-0.126-1.214-0.233-2.43-0.321-3.646c-0.02-0.255-0.031-0.51-0.048-0.765    c-0.066-0.999-0.119-1.998-0.159-2.999c-0.014-0.34-0.027-0.68-0.039-1.019c-0.038-1.23-0.064-2.46-0.064-3.689    c0-1.332,0.03-2.662,0.076-3.992c0.012-0.365,0.027-0.73,0.044-1.096c0.047-1.097,0.109-2.191,0.188-3.285    c0.018-0.258,0.031-0.516,0.052-0.773c0.102-1.312,0.228-2.62,0.374-3.926c0.036-0.324,0.078-0.646,0.117-0.97    c0.125-1.041,0.264-2.079,0.417-3.115c0.032-0.219,0.054-0.439,0.088-0.658l-80.115,18.693L139.156,273.415z" id="XMLID_675_"/>
<path d="M370.871,261.801c-0.044,1.048-0.102,2.094-0.173,3.14c-0.018,0.251-0.029,0.502-0.048,0.753    c-0.094,1.25-0.211,2.499-0.345,3.745c-0.034,0.326-0.075,0.65-0.112,0.976c-0.116,0.99-0.242,1.98-0.383,2.968    c-0.03,0.214-0.051,0.429-0.083,0.642l83.039-16.213l-83.271-19.43c0.034,0.213,0.058,0.428,0.09,0.641    c0.172,1.106,0.328,2.216,0.468,3.326c0.043,0.344,0.089,0.687,0.129,1.03c0.16,1.362,0.299,2.727,0.411,4.092    c0.019,0.23,0.03,0.461,0.048,0.69c0.089,1.171,0.158,2.341,0.211,3.513c0.018,0.373,0.034,0.746,0.048,1.119    c0.049,1.381,0.083,2.761,0.083,4.141c0,1.271-0.028,2.543-0.07,3.815C370.9,261.1,370.886,261.451,370.871,261.801z" id="XMLID_676_"/>
<path d="M339.583,322.073c9.711-12.662,16.559-27.574,19.807-43.125c0,0,0-0.001,0-0.002    c1.32-6.318,2.07-12.779,2.237-19.244c0.023-0.924,0.035-1.847,0.035-2.77c0-7.94-0.891-15.912-2.647-23.695    c-3.191-14.139-9.132-27.278-17.655-39.055c-5.874-8.116-12.85-15.371-20.734-21.564c-11.236-8.825-23.857-15.215-37.514-18.99    c-1.313-0.363-2.711-0.716-4.273-1.078c-2.017-0.468-4-0.871-5.895-1.201c-1.507-0.262-3.022-0.491-4.543-0.688    c-1.072-0.14-2.149-0.243-3.227-0.35c-0.44-0.044-0.88-0.104-1.321-0.143c-7.508-0.651-15.107-0.51-22.634,0.424    c-0.103,0.013-0.205,0.02-0.308,0.032c-1.522,0.193-3.042,0.42-4.558,0.679c-0.995,0.17-1.983,0.362-2.971,0.557    c-1.696,0.336-3.081,0.637-4.357,0.948c-14.71,3.585-28.263,10.142-40.28,19.49c-0.001,0-0.002,0.002-0.004,0.003    c-7.896,6.143-14.892,13.341-20.789,21.395c-8.868,12.112-14.981,25.657-18.172,40.259c-0.204,0.938-0.396,1.879-0.575,2.823    c-1.257,6.61-1.893,13.376-1.893,20.155c0,7.194,0.723,14.402,2.147,21.424c3.23,15.931,10.219,31.175,20.207,44.086    c6.44,8.324,14.052,15.647,22.621,21.766c11.284,8.056,23.807,13.764,37.219,16.966c1.271,0.303,2.686,0.606,4.322,0.927    c0.001,0,0.002,0,0.003,0c0.921,0.18,1.845,0.349,2.771,0.504c6.508,1.095,13.104,1.585,19.685,1.476    c7.463-0.125,14.907-1.021,22.184-2.686c1.639-0.376,2.986-0.709,4.24-1.05c12.289-3.346,23.813-8.845,34.249-16.346    C325.547,337.826,333.159,330.45,339.583,322.073z M205.575,221.191c-5.012,6.845-8.467,14.5-10.27,22.752    c-0.926,4.238-1.396,8.608-1.396,12.989c0,2.573-2.086,4.659-4.659,4.659s-4.66-2.086-4.66-4.659    c0-5.048,0.542-10.087,1.61-14.979c2.081-9.53,6.07-18.367,11.854-26.269c1.521-2.077,4.438-2.526,6.513-1.007    C206.645,216.199,207.096,219.114,205.575,221.191z M322.902,271.281c-2.117,10.148-6.586,19.879-12.921,28.141    c-0.917,1.195-2.302,1.823-3.701,1.823c-0.989,0-1.986-0.313-2.832-0.962c-2.042-1.566-2.429-4.491-0.862-6.533    c5.489-7.157,9.359-15.586,11.193-24.373c0.854-4.084,1.285-8.271,1.285-12.444c0-4.489-0.503-8.996-1.496-13.396    c-1.804-7.989-5.161-15.415-9.979-22.07c-3.32-4.589-7.264-8.69-11.722-12.191c-2.022-1.589-2.375-4.519-0.785-6.542    c1.59-2.025,4.52-2.376,6.543-0.787c5.139,4.037,9.686,8.766,13.515,14.057c5.56,7.682,9.436,16.256,11.518,25.482    c1.146,5.071,1.726,10.269,1.726,15.447C324.384,261.745,323.886,266.572,322.902,271.281z" id="XMLID_677_"/>
<path d="M342.349,333.382c-0.724,0.831-1.462,1.65-2.21,2.462c-0.359,0.389-0.713,0.78-1.076,1.164    c-0.957,1.01-1.933,2.002-2.926,2.978c-0.159,0.155-0.312,0.317-0.471,0.474c-1.16,1.126-2.348,2.227-3.554,3.305    c-0.338,0.302-0.685,0.592-1.025,0.89c-0.88,0.769-1.769,1.527-2.672,2.27c-0.185,0.152-0.36,0.313-0.546,0.465l42.873,26.65    l-27.811-41.306C342.742,332.953,342.54,333.162,342.349,333.382z" id="XMLID_681_"/>
</g>
</g>
<g id="Layer_1"/>
</svg>